<svg width="50" height="50" viewBox="0 0 50 50" fill="none" xmlns="http://www.w3.org/2000/svg">
<circle cx="25" cy="25" r="24.5" stroke="#E3E4E6"/>
<path d="M36.49 25.27C36.49 24.48 36.42 23.73 36.3 23H25V27.51H31.47C31.18 28.99 30.33 30.24 29.07 31.09V34.09H32.93C35.19 32 36.49 28.92 36.49 25.27Z" fill="#4285F4"/>
<path d="M25 37C28.24 37 30.95 35.92 32.93 34.09L29.07 31.09C27.99 31.81 26.62 32.25 25 32.25C21.87 32.25 19.22 30.14 18.27 27.29H14.29V30.38C16.26 34.3 20.31 37 25 37Z" fill="#34A853"/>
<path d="M18.27 27.29C18.02 26.57 17.89 25.8 17.89 25C17.89 24.2 18.03 23.43 18.27 22.71V19.62H14.29C13.47 21.24 13 23.06 13 25C13 26.94 13.47 28.76 14.29 30.38L18.27 27.29Z" fill="#FBBC05"/>
<path d="M25 17.75C26.77 17.75 28.35 18.36 29.6 19.55L33.02 16.13C30.95 14.19 28.24 13 25 13C20.31 13 16.26 15.7 14.29 19.62L18.27 22.71C19.22 19.86 21.87 17.75 25 17.75Z" fill="#EA4335"/>
</svg>
