<svg width="50" height="50" viewBox="0 0 50 50" fill="none" xmlns="http://www.w3.org/2000/svg">
<circle cx="25" cy="25" r="25" fill="#4AA1EC"/>
<path d="M34.479 20.0285C34.4935 20.2412 34.4935 20.454 34.4935 20.6687C34.4935 27.2108 29.5774 34.7559 20.5881 34.7559V34.752C17.9326 34.7559 15.3323 33.9853 13.0968 32.5324C13.4829 32.5795 13.871 32.603 14.26 32.604C16.4606 32.6059 18.5984 31.8579 20.3297 30.4804C18.2384 30.4402 16.4045 29.0589 15.7639 27.0422C16.4964 27.1853 17.2513 27.1559 17.9703 26.9569C15.6903 26.4902 14.05 24.4608 14.05 22.104C14.05 22.0824 14.05 22.0618 14.05 22.0412C14.7294 22.4246 15.49 22.6373 16.2681 22.6608C14.1206 21.2069 13.4587 18.3128 14.7555 16.05C17.2368 19.1432 20.8977 21.0236 24.8277 21.2226C24.4339 19.503 24.9719 17.701 26.2416 16.4922C28.21 14.6177 31.3058 14.7138 33.1561 16.7069C34.2506 16.4883 35.2997 16.0814 36.2597 15.505C35.8948 16.651 35.1313 17.6246 34.1113 18.2432C35.08 18.1275 36.0264 17.8648 36.9177 17.4638C36.2616 18.4599 35.4352 19.3275 34.479 20.0285Z" fill="white"/>
</svg>
