<svg width="50" height="50" viewBox="0 0 50 50" fill="none" xmlns="http://www.w3.org/2000/svg">
<circle cx="25" cy="25" r="25" fill="#58BE38"/>
<path d="M38 22.646C38 16.7758 31.944 12 24.5 12C17.056 12 11 16.7758 11 22.646C11 27.9087 15.8083 32.3169 22.2894 33.1493C22.7298 33.2415 23.3283 33.4309 23.4789 33.7961C23.6155 34.1281 23.5687 34.6482 23.5232 34.9827C23.5232 34.9827 23.365 35.9086 23.3308 36.1053C23.2713 36.4373 23.0588 37.4026 24.5 36.8136C25.9412 36.2246 32.2743 32.3648 35.1061 29.1961C37.0624 27.1119 38 24.9921 38 22.646Z" fill="white"/>
<path d="M33.7057 26H29.2941C29.2161 26 29.1413 25.975 29.0861 25.9305C29.031 25.886 29 25.8256 29 25.7626V20.2374C29 20.1744 29.031 20.114 29.0861 20.0695C29.1413 20.025 29.2161 20 29.2941 20H33.7057C33.7837 20 33.8585 20.025 33.9137 20.0695C33.9688 20.114 33.9998 20.1744 33.9998 20.2374V21.1359C33.9998 21.1989 33.9688 21.2592 33.9137 21.3038C33.8585 21.3483 33.7837 21.3733 33.7057 21.3733H30.7102V22.305H33.7057C33.7837 22.305 33.8585 22.3301 33.9137 22.3746C33.9688 22.4191 33.9998 22.4795 33.9998 22.5424V23.4493C33.9998 23.5122 33.9688 23.5726 33.9137 23.6171C33.8585 23.6616 33.7837 23.6866 33.7057 23.6866H30.7102V24.6196H33.7057C33.7837 24.6196 33.8585 24.6446 33.9137 24.6891C33.9688 24.7336 33.9998 24.794 33.9998 24.857V25.7543C34.0012 25.7862 33.9946 25.8179 33.9805 25.8477C33.9663 25.8775 33.9449 25.9046 33.9174 25.9276C33.89 25.9505 33.8571 25.9687 33.8207 25.9812C33.7843 25.9936 33.7452 26 33.7057 26Z" fill="#58BE38"/>
<path d="M19.7056 26C19.7837 26 19.8586 25.975 19.9138 25.9305C19.969 25.886 20 25.8256 20 25.7627V24.8655C20 24.8026 19.969 24.7422 19.9138 24.6977C19.8586 24.6532 19.7837 24.6282 19.7056 24.6282H16.7074V20.2373C16.7074 20.1744 16.6764 20.114 16.6212 20.0695C16.566 20.025 16.4911 20 16.413 20H15.2944C15.2163 20 15.1414 20.025 15.0862 20.0695C15.031 20.114 15 20.1744 15 20.2373V25.7591C15 25.822 15.031 25.8824 15.0862 25.9269C15.1414 25.9714 15.2163 25.9964 15.2944 25.9964H19.71L19.7056 26Z" fill="#58BE38"/>
<path d="M21.8247 20H21.1753C21.0785 20 21 20.1082 21 20.2417V25.7583C21 25.8918 21.0785 26 21.1753 26H21.8247C21.9215 26 22 25.8918 22 25.7583V20.2417C22 20.1082 21.9215 20 21.8247 20Z" fill="#58BE38"/>
<path d="M27.773 20H26.9153C26.8551 20 26.7974 20.0248 26.7549 20.0691C26.7123 20.1133 26.6884 20.1733 26.6884 20.2358V23.497L24.2718 20.1049C24.2663 20.096 24.2598 20.0876 24.2525 20.0802L24.2389 20.066L24.2264 20.0554H24.2196L24.2072 20.046H24.2004L24.1879 20.0389H24.1799H24.1674H24.1595H24.1459H24.1368H24.1232H24.1141H24.1016H23.2269C23.1667 20.0389 23.109 20.0638 23.0665 20.108C23.0239 20.1522 23 20.2122 23 20.2747V25.7642C23 25.8267 23.0239 25.8867 23.0665 25.9309C23.109 25.9752 23.1667 26 23.2269 26H24.0858C24.1459 26 24.2037 25.9752 24.2462 25.9309C24.2888 25.8867 24.3127 25.8267 24.3127 25.7642V22.4712L26.7327 25.8668C26.7485 25.8908 26.7685 25.9116 26.7917 25.9281L26.8053 25.9375H26.8121L26.8234 25.9434H26.8348H26.8427H26.8586C26.8787 25.9485 26.8992 25.9513 26.9199 25.9517H27.773C27.8332 25.9517 27.8909 25.9268 27.9335 25.8826C27.976 25.8384 28 25.7784 28 25.7159V20.2405C28.0006 20.2092 27.9951 20.178 27.984 20.1488C27.9729 20.1197 27.9563 20.0931 27.9351 20.0707C27.914 20.0483 27.8888 20.0305 27.8609 20.0184C27.8331 20.0062 27.8032 20 27.773 20Z" fill="#58BE38"/>
</svg>
