<svg width="50" height="50" viewBox="0 0 50 50" fill="none" xmlns="http://www.w3.org/2000/svg">
<circle cx="25" cy="25" r="25" fill="#F5E250"/>
<path d="M25 13C18.3725 13 13 17.3992 13 22.8258C13 26.3342 15.2461 29.4127 18.6248 31.1511C18.441 31.8094 17.4436 35.3862 17.4039 35.6672C17.4039 35.6672 17.38 35.8783 17.5117 35.9589C17.6433 36.0394 17.7982 35.9768 17.7982 35.9768C18.1757 35.9221 22.1762 33.0038 22.8686 32.4971C23.5603 32.5988 24.2726 32.6516 25 32.6516C31.6275 32.6516 37 28.2526 37 22.8258C37 17.3992 31.6275 13 25 13Z" fill="black"/>
</svg>
