<svg width="198" height="38" viewBox="0 0 198 38" fill="none" xmlns="http://www.w3.org/2000/svg">
<path d="M96.2782 19.1957H91.5282V8.04482H85.3646V36.3508H91.5282V25.0856H96.2782V36.3508H102.442V8.04482H96.2782V19.1957Z" fill="#FF0558"/>
<path d="M49.6269 13.9348H54.603V36.3508H60.7666V13.9348H65.46V8.04482H49.6269V13.9348Z" fill="#FF0558"/>
<path d="M37.2432 8.04482L32.2671 36.3508H38.2611L38.934 31.7761H44.6113L45.2729 36.3508H51.3234L46.2907 8.04482H37.2432ZM39.6917 26.6296L41.4277 14.8497H42.1628L43.8677 26.6296H39.6917Z" fill="#FF0558"/>
<path fill-rule="evenodd" clip-rule="evenodd" d="M26.6303 0L24.7856 27.0777L24.2899 27.1038L19.9025 7.94689H14.4812L11.1991 27.7966L10.4957 27.8337L7.55712 7.94689H0L6.87533 37.5517L14.5609 37.0396L17.0613 18.6635L17.7947 18.6233L21.143 36.5955L28.4989 36.102L34.3404 0H26.6303Z" fill="#FF0558"/>
<path d="M74.9599 7.75887C69.4183 7.75887 66.7606 10.7896 66.7606 15.4787V28.9169C66.7606 33.606 69.4183 36.6367 74.9599 36.6367C80.5015 36.6367 83.1592 33.606 83.1592 28.9169V24.0563H76.9956V29.4887C76.9956 30.9755 76.4301 31.4902 74.9599 31.4902C73.4897 31.4902 72.9242 30.9755 72.9242 29.4887V14.9069C72.9242 13.4201 73.4897 12.9054 74.9599 12.9054C76.4301 12.9054 76.9956 13.4201 76.9956 14.9069V18.1092H83.1592V15.4787C83.1592 10.7896 80.5015 7.75887 74.9599 7.75887Z" fill="#FF0558"/>
<path d="M108.888 8.04482L103.912 36.3508H109.906L110.579 31.7761H116.256L116.918 36.3508H122.968L117.935 8.04482H108.888ZM111.336 26.6296L113.072 14.8497H113.808L115.512 26.6296H111.336Z" fill="#FF0558"/>
<path d="M164.807 8.04492H158.587V36.3509H164.807C168.313 36.3509 170.631 34.9785 171.762 32.4624C172.441 30.9757 172.611 29.6032 172.611 22.1693C172.611 14.7926 172.441 13.4202 171.762 11.9334C170.631 9.41734 168.313 8.04492 164.807 8.04492ZM168.313 30.8613C167.747 32.2337 166.56 32.9771 164.468 32.9771H162.262V11.4188H164.468C166.56 11.4188 167.747 12.1622 168.313 13.5346C168.765 14.5067 168.878 15.3645 168.878 22.2265C168.878 29.0314 168.765 29.8892 168.313 30.8613Z" fill="#292A32"/>
<path d="M192.854 8.04492H187.256L182.054 36.3509H185.729L186.634 30.6326H193.42L194.381 36.3509H198L192.854 8.04492ZM187.2 27.4303L189.97 11.0185H190.084L192.854 27.4303H187.2Z" fill="#292A32"/>
<path d="M179.396 8.04492H175.721V36.3509H179.396V8.04492Z" fill="#292A32"/>
<path d="M136.308 8.04492H129.635V36.3509H133.254V23.1415H136.308C139.135 23.1415 140.944 22.3409 141.736 20.5682C142.132 19.5389 142.245 18.7383 142.245 15.5932C142.245 12.4481 142.132 11.5903 141.736 10.6754C140.944 8.8455 139.135 8.04492 136.308 8.04492ZM138.287 18.5096C137.891 19.5389 136.93 19.7676 135.403 19.7676H133.254V11.19H135.403C136.93 11.19 137.891 11.476 138.287 12.4481C138.513 12.9627 138.569 13.2487 138.569 15.4788C138.569 17.6518 138.513 18.0521 138.287 18.5096Z" fill="#292A32"/>
<path d="M144.903 36.3509H155.194V32.9771H148.578V23.0271H155.024V19.6532H148.578V11.4188H155.194V8.04492H144.903V36.3509Z" fill="#292A32"/>
</svg>
